<mxfile host="app.diagrams.net" agent="Mozilla/5.0 (Macintosh; Intel Mac OS X 10_15_7) AppleWebKit/605.1.15 (KHTML, like Gecko) Version/18.5 Safari/605.1.15" version="27.1.6">
  <diagram name="Seite-1" id="cvDSubdnJJmS576-hT3l">
    <mxGraphModel dx="1128" dy="709" grid="1" gridSize="10" guides="1" tooltips="1" connect="1" arrows="1" fold="1" page="1" pageScale="1" pageWidth="827" pageHeight="1169" math="0" shadow="0">
      <root>
        <mxCell id="0" />
        <mxCell id="1" parent="0" />
        <mxCell id="m173oKReCjpi0H9GwvD5-7" style="rounded=0;orthogonalLoop=1;jettySize=auto;html=1;exitX=1;exitY=0;exitDx=0;exitDy=0;" edge="1" parent="1" source="m173oKReCjpi0H9GwvD5-1" target="m173oKReCjpi0H9GwvD5-2">
          <mxGeometry relative="1" as="geometry" />
        </mxCell>
        <mxCell id="m173oKReCjpi0H9GwvD5-8" style="rounded=0;orthogonalLoop=1;jettySize=auto;html=1;exitX=1;exitY=0.25;exitDx=0;exitDy=0;" edge="1" parent="1" source="m173oKReCjpi0H9GwvD5-1" target="m173oKReCjpi0H9GwvD5-5">
          <mxGeometry relative="1" as="geometry" />
        </mxCell>
        <mxCell id="m173oKReCjpi0H9GwvD5-9" style="edgeStyle=orthogonalEdgeStyle;rounded=0;orthogonalLoop=1;jettySize=auto;html=1;exitX=1;exitY=0.5;exitDx=0;exitDy=0;" edge="1" parent="1" source="m173oKReCjpi0H9GwvD5-1" target="m173oKReCjpi0H9GwvD5-3">
          <mxGeometry relative="1" as="geometry" />
        </mxCell>
        <mxCell id="m173oKReCjpi0H9GwvD5-10" style="rounded=0;orthogonalLoop=1;jettySize=auto;html=1;exitX=1;exitY=0.75;exitDx=0;exitDy=0;" edge="1" parent="1" source="m173oKReCjpi0H9GwvD5-1" target="m173oKReCjpi0H9GwvD5-4">
          <mxGeometry relative="1" as="geometry" />
        </mxCell>
        <mxCell id="m173oKReCjpi0H9GwvD5-11" style="rounded=0;orthogonalLoop=1;jettySize=auto;html=1;exitX=1;exitY=1;exitDx=0;exitDy=0;" edge="1" parent="1" source="m173oKReCjpi0H9GwvD5-1" target="m173oKReCjpi0H9GwvD5-6">
          <mxGeometry relative="1" as="geometry" />
        </mxCell>
        <mxCell id="m173oKReCjpi0H9GwvD5-1" value="Senior Web Development Talent" style="rounded=0;whiteSpace=wrap;html=1;" vertex="1" parent="1">
          <mxGeometry x="40" y="200" width="120" height="40" as="geometry" />
        </mxCell>
        <mxCell id="m173oKReCjpi0H9GwvD5-2" value="Projektmanagement" style="rounded=0;whiteSpace=wrap;html=1;" vertex="1" parent="1">
          <mxGeometry x="200" y="40" width="120" height="40" as="geometry" />
        </mxCell>
        <mxCell id="m173oKReCjpi0H9GwvD5-3" value="Frontend" style="rounded=0;whiteSpace=wrap;html=1;" vertex="1" parent="1">
          <mxGeometry x="200" y="200" width="120" height="40" as="geometry" />
        </mxCell>
        <mxCell id="m173oKReCjpi0H9GwvD5-4" value="DevOps" style="rounded=0;whiteSpace=wrap;html=1;" vertex="1" parent="1">
          <mxGeometry x="200" y="280" width="120" height="40" as="geometry" />
        </mxCell>
        <mxCell id="m173oKReCjpi0H9GwvD5-5" value="DevEnv" style="rounded=0;whiteSpace=wrap;html=1;" vertex="1" parent="1">
          <mxGeometry x="200" y="120" width="120" height="40" as="geometry" />
        </mxCell>
        <mxCell id="m173oKReCjpi0H9GwvD5-6" value="Backend" style="rounded=0;whiteSpace=wrap;html=1;" vertex="1" parent="1">
          <mxGeometry x="200" y="360" width="120" height="40" as="geometry" />
        </mxCell>
        <mxCell id="m173oKReCjpi0H9GwvD5-12" style="rounded=0;orthogonalLoop=1;jettySize=auto;html=1;exitX=1;exitY=0;exitDx=0;exitDy=0;" edge="1" parent="1" source="m173oKReCjpi0H9GwvD5-17" target="m173oKReCjpi0H9GwvD5-18">
          <mxGeometry relative="1" as="geometry" />
        </mxCell>
        <mxCell id="m173oKReCjpi0H9GwvD5-13" style="rounded=0;orthogonalLoop=1;jettySize=auto;html=1;exitX=1;exitY=0.25;exitDx=0;exitDy=0;" edge="1" parent="1" source="m173oKReCjpi0H9GwvD5-17" target="m173oKReCjpi0H9GwvD5-21">
          <mxGeometry relative="1" as="geometry" />
        </mxCell>
        <mxCell id="m173oKReCjpi0H9GwvD5-14" style="edgeStyle=orthogonalEdgeStyle;rounded=0;orthogonalLoop=1;jettySize=auto;html=1;exitX=1;exitY=0.5;exitDx=0;exitDy=0;" edge="1" parent="1" source="m173oKReCjpi0H9GwvD5-17" target="m173oKReCjpi0H9GwvD5-19">
          <mxGeometry relative="1" as="geometry" />
        </mxCell>
        <mxCell id="m173oKReCjpi0H9GwvD5-15" style="rounded=0;orthogonalLoop=1;jettySize=auto;html=1;exitX=1;exitY=0.75;exitDx=0;exitDy=0;" edge="1" parent="1" source="m173oKReCjpi0H9GwvD5-17" target="m173oKReCjpi0H9GwvD5-20">
          <mxGeometry relative="1" as="geometry" />
        </mxCell>
        <mxCell id="m173oKReCjpi0H9GwvD5-16" style="rounded=0;orthogonalLoop=1;jettySize=auto;html=1;exitX=1;exitY=1;exitDx=0;exitDy=0;" edge="1" parent="1" source="m173oKReCjpi0H9GwvD5-17" target="m173oKReCjpi0H9GwvD5-22">
          <mxGeometry relative="1" as="geometry" />
        </mxCell>
        <mxCell id="m173oKReCjpi0H9GwvD5-17" value="Projektmanagement" style="rounded=0;whiteSpace=wrap;html=1;" vertex="1" parent="1">
          <mxGeometry x="360" y="200" width="120" height="40" as="geometry" />
        </mxCell>
        <mxCell id="m173oKReCjpi0H9GwvD5-18" value="Mindset" style="rounded=0;whiteSpace=wrap;html=1;" vertex="1" parent="1">
          <mxGeometry x="520" y="40" width="120" height="40" as="geometry" />
        </mxCell>
        <mxCell id="m173oKReCjpi0H9GwvD5-19" value="Dokumentation" style="rounded=0;whiteSpace=wrap;html=1;" vertex="1" parent="1">
          <mxGeometry x="520" y="200" width="120" height="40" as="geometry" />
        </mxCell>
        <mxCell id="m173oKReCjpi0H9GwvD5-20" value="" style="rounded=0;whiteSpace=wrap;html=1;" vertex="1" parent="1">
          <mxGeometry x="520" y="280" width="120" height="40" as="geometry" />
        </mxCell>
        <mxCell id="m173oKReCjpi0H9GwvD5-21" value="Zeitmanagement" style="rounded=0;whiteSpace=wrap;html=1;" vertex="1" parent="1">
          <mxGeometry x="520" y="120" width="120" height="40" as="geometry" />
        </mxCell>
        <mxCell id="m173oKReCjpi0H9GwvD5-22" value="" style="rounded=0;whiteSpace=wrap;html=1;" vertex="1" parent="1">
          <mxGeometry x="520" y="360" width="120" height="40" as="geometry" />
        </mxCell>
        <mxCell id="m173oKReCjpi0H9GwvD5-23" style="rounded=0;orthogonalLoop=1;jettySize=auto;html=1;exitX=1;exitY=0;exitDx=0;exitDy=0;" edge="1" parent="1" source="m173oKReCjpi0H9GwvD5-28" target="m173oKReCjpi0H9GwvD5-29">
          <mxGeometry relative="1" as="geometry" />
        </mxCell>
        <mxCell id="m173oKReCjpi0H9GwvD5-24" style="rounded=0;orthogonalLoop=1;jettySize=auto;html=1;exitX=1;exitY=0.25;exitDx=0;exitDy=0;" edge="1" parent="1" source="m173oKReCjpi0H9GwvD5-28" target="m173oKReCjpi0H9GwvD5-32">
          <mxGeometry relative="1" as="geometry" />
        </mxCell>
        <mxCell id="m173oKReCjpi0H9GwvD5-25" style="edgeStyle=orthogonalEdgeStyle;rounded=0;orthogonalLoop=1;jettySize=auto;html=1;exitX=1;exitY=0.5;exitDx=0;exitDy=0;" edge="1" parent="1" source="m173oKReCjpi0H9GwvD5-28" target="m173oKReCjpi0H9GwvD5-30">
          <mxGeometry relative="1" as="geometry" />
        </mxCell>
        <mxCell id="m173oKReCjpi0H9GwvD5-26" style="rounded=0;orthogonalLoop=1;jettySize=auto;html=1;exitX=1;exitY=0.75;exitDx=0;exitDy=0;" edge="1" parent="1" source="m173oKReCjpi0H9GwvD5-28" target="m173oKReCjpi0H9GwvD5-31">
          <mxGeometry relative="1" as="geometry" />
        </mxCell>
        <mxCell id="m173oKReCjpi0H9GwvD5-27" style="rounded=0;orthogonalLoop=1;jettySize=auto;html=1;exitX=1;exitY=1;exitDx=0;exitDy=0;" edge="1" parent="1" source="m173oKReCjpi0H9GwvD5-28" target="m173oKReCjpi0H9GwvD5-33">
          <mxGeometry relative="1" as="geometry" />
        </mxCell>
        <mxCell id="m173oKReCjpi0H9GwvD5-28" value="Mindset" style="rounded=0;whiteSpace=wrap;html=1;" vertex="1" parent="1">
          <mxGeometry x="680" y="200" width="120" height="40" as="geometry" />
        </mxCell>
        <mxCell id="m173oKReCjpi0H9GwvD5-29" value="Affirmationen" style="rounded=0;whiteSpace=wrap;html=1;" vertex="1" parent="1">
          <mxGeometry x="840" y="40" width="120" height="40" as="geometry" />
        </mxCell>
        <mxCell id="m173oKReCjpi0H9GwvD5-30" value="" style="rounded=0;whiteSpace=wrap;html=1;" vertex="1" parent="1">
          <mxGeometry x="840" y="200" width="120" height="40" as="geometry" />
        </mxCell>
        <mxCell id="m173oKReCjpi0H9GwvD5-31" value="" style="rounded=0;whiteSpace=wrap;html=1;" vertex="1" parent="1">
          <mxGeometry x="840" y="280" width="120" height="40" as="geometry" />
        </mxCell>
        <mxCell id="m173oKReCjpi0H9GwvD5-32" value="" style="rounded=0;whiteSpace=wrap;html=1;" vertex="1" parent="1">
          <mxGeometry x="840" y="120" width="120" height="40" as="geometry" />
        </mxCell>
        <mxCell id="m173oKReCjpi0H9GwvD5-33" value="" style="rounded=0;whiteSpace=wrap;html=1;" vertex="1" parent="1">
          <mxGeometry x="840" y="360" width="120" height="40" as="geometry" />
        </mxCell>
        <mxCell id="m173oKReCjpi0H9GwvD5-34" style="rounded=0;orthogonalLoop=1;jettySize=auto;html=1;exitX=1;exitY=0;exitDx=0;exitDy=0;" edge="1" parent="1" source="m173oKReCjpi0H9GwvD5-39" target="m173oKReCjpi0H9GwvD5-40">
          <mxGeometry relative="1" as="geometry" />
        </mxCell>
        <mxCell id="m173oKReCjpi0H9GwvD5-35" style="rounded=0;orthogonalLoop=1;jettySize=auto;html=1;exitX=1;exitY=0.25;exitDx=0;exitDy=0;" edge="1" parent="1" source="m173oKReCjpi0H9GwvD5-39" target="m173oKReCjpi0H9GwvD5-43">
          <mxGeometry relative="1" as="geometry" />
        </mxCell>
        <mxCell id="m173oKReCjpi0H9GwvD5-36" style="edgeStyle=orthogonalEdgeStyle;rounded=0;orthogonalLoop=1;jettySize=auto;html=1;exitX=1;exitY=0.5;exitDx=0;exitDy=0;" edge="1" parent="1" source="m173oKReCjpi0H9GwvD5-39" target="m173oKReCjpi0H9GwvD5-41">
          <mxGeometry relative="1" as="geometry" />
        </mxCell>
        <mxCell id="m173oKReCjpi0H9GwvD5-37" style="rounded=0;orthogonalLoop=1;jettySize=auto;html=1;exitX=1;exitY=0.75;exitDx=0;exitDy=0;" edge="1" parent="1" source="m173oKReCjpi0H9GwvD5-39" target="m173oKReCjpi0H9GwvD5-42">
          <mxGeometry relative="1" as="geometry" />
        </mxCell>
        <mxCell id="m173oKReCjpi0H9GwvD5-38" style="rounded=0;orthogonalLoop=1;jettySize=auto;html=1;exitX=1;exitY=1;exitDx=0;exitDy=0;" edge="1" parent="1" source="m173oKReCjpi0H9GwvD5-39" target="m173oKReCjpi0H9GwvD5-44">
          <mxGeometry relative="1" as="geometry" />
        </mxCell>
        <mxCell id="m173oKReCjpi0H9GwvD5-39" value="Zeitmanagement" style="rounded=0;whiteSpace=wrap;html=1;" vertex="1" parent="1">
          <mxGeometry x="680" y="600" width="120" height="40" as="geometry" />
        </mxCell>
        <mxCell id="m173oKReCjpi0H9GwvD5-40" value="Pomodoro" style="rounded=0;whiteSpace=wrap;html=1;" vertex="1" parent="1">
          <mxGeometry x="840" y="440" width="120" height="40" as="geometry" />
        </mxCell>
        <mxCell id="m173oKReCjpi0H9GwvD5-41" value="Termine" style="rounded=0;whiteSpace=wrap;html=1;" vertex="1" parent="1">
          <mxGeometry x="840" y="600" width="120" height="40" as="geometry" />
        </mxCell>
        <mxCell id="m173oKReCjpi0H9GwvD5-42" value="Pünktlichkeit" style="rounded=0;whiteSpace=wrap;html=1;" vertex="1" parent="1">
          <mxGeometry x="840" y="680" width="120" height="40" as="geometry" />
        </mxCell>
        <mxCell id="m173oKReCjpi0H9GwvD5-43" value="Kalender" style="rounded=0;whiteSpace=wrap;html=1;" vertex="1" parent="1">
          <mxGeometry x="840" y="520" width="120" height="40" as="geometry" />
        </mxCell>
        <mxCell id="m173oKReCjpi0H9GwvD5-44" value="" style="rounded=0;whiteSpace=wrap;html=1;" vertex="1" parent="1">
          <mxGeometry x="840" y="760" width="120" height="40" as="geometry" />
        </mxCell>
        <mxCell id="m173oKReCjpi0H9GwvD5-46" style="rounded=0;orthogonalLoop=1;jettySize=auto;html=1;exitX=1;exitY=0;exitDx=0;exitDy=0;" edge="1" parent="1" source="m173oKReCjpi0H9GwvD5-51" target="m173oKReCjpi0H9GwvD5-52">
          <mxGeometry relative="1" as="geometry" />
        </mxCell>
        <mxCell id="m173oKReCjpi0H9GwvD5-47" style="rounded=0;orthogonalLoop=1;jettySize=auto;html=1;exitX=1;exitY=0.25;exitDx=0;exitDy=0;" edge="1" parent="1" source="m173oKReCjpi0H9GwvD5-51" target="m173oKReCjpi0H9GwvD5-55">
          <mxGeometry relative="1" as="geometry" />
        </mxCell>
        <mxCell id="m173oKReCjpi0H9GwvD5-48" style="edgeStyle=orthogonalEdgeStyle;rounded=0;orthogonalLoop=1;jettySize=auto;html=1;exitX=1;exitY=0.5;exitDx=0;exitDy=0;" edge="1" parent="1" source="m173oKReCjpi0H9GwvD5-51" target="m173oKReCjpi0H9GwvD5-53">
          <mxGeometry relative="1" as="geometry" />
        </mxCell>
        <mxCell id="m173oKReCjpi0H9GwvD5-49" style="rounded=0;orthogonalLoop=1;jettySize=auto;html=1;exitX=1;exitY=0.75;exitDx=0;exitDy=0;" edge="1" parent="1" source="m173oKReCjpi0H9GwvD5-51" target="m173oKReCjpi0H9GwvD5-54">
          <mxGeometry relative="1" as="geometry" />
        </mxCell>
        <mxCell id="m173oKReCjpi0H9GwvD5-50" style="rounded=0;orthogonalLoop=1;jettySize=auto;html=1;exitX=1;exitY=1;exitDx=0;exitDy=0;" edge="1" parent="1" source="m173oKReCjpi0H9GwvD5-51" target="m173oKReCjpi0H9GwvD5-56">
          <mxGeometry relative="1" as="geometry" />
        </mxCell>
        <mxCell id="m173oKReCjpi0H9GwvD5-51" value="Dokumentation" style="rounded=0;whiteSpace=wrap;html=1;" vertex="1" parent="1">
          <mxGeometry x="680" y="1000" width="120" height="40" as="geometry" />
        </mxCell>
        <mxCell id="m173oKReCjpi0H9GwvD5-52" value="Produktvision" style="rounded=0;whiteSpace=wrap;html=1;" vertex="1" parent="1">
          <mxGeometry x="840" y="840" width="120" height="40" as="geometry" />
        </mxCell>
        <mxCell id="m173oKReCjpi0H9GwvD5-53" value="Lastenheft" style="rounded=0;whiteSpace=wrap;html=1;" vertex="1" parent="1">
          <mxGeometry x="840" y="1000" width="120" height="40" as="geometry" />
        </mxCell>
        <mxCell id="m173oKReCjpi0H9GwvD5-54" value="Produktdokumentation" style="rounded=0;whiteSpace=wrap;html=1;" vertex="1" parent="1">
          <mxGeometry x="840" y="1080" width="120" height="40" as="geometry" />
        </mxCell>
        <mxCell id="m173oKReCjpi0H9GwvD5-55" value="Pflichtenheft" style="rounded=0;whiteSpace=wrap;html=1;" vertex="1" parent="1">
          <mxGeometry x="840" y="920" width="120" height="40" as="geometry" />
        </mxCell>
        <mxCell id="m173oKReCjpi0H9GwvD5-56" value="Projektdokumentation" style="rounded=0;whiteSpace=wrap;html=1;" vertex="1" parent="1">
          <mxGeometry x="840" y="1160" width="120" height="40" as="geometry" />
        </mxCell>
        <mxCell id="m173oKReCjpi0H9GwvD5-58" style="rounded=0;orthogonalLoop=1;jettySize=auto;html=1;exitX=1;exitY=0;exitDx=0;exitDy=0;" edge="1" parent="1" source="m173oKReCjpi0H9GwvD5-63" target="m173oKReCjpi0H9GwvD5-64">
          <mxGeometry relative="1" as="geometry" />
        </mxCell>
        <mxCell id="m173oKReCjpi0H9GwvD5-59" style="rounded=0;orthogonalLoop=1;jettySize=auto;html=1;exitX=1;exitY=0.25;exitDx=0;exitDy=0;" edge="1" parent="1" source="m173oKReCjpi0H9GwvD5-63" target="m173oKReCjpi0H9GwvD5-67">
          <mxGeometry relative="1" as="geometry" />
        </mxCell>
        <mxCell id="m173oKReCjpi0H9GwvD5-60" style="edgeStyle=orthogonalEdgeStyle;rounded=0;orthogonalLoop=1;jettySize=auto;html=1;exitX=1;exitY=0.5;exitDx=0;exitDy=0;" edge="1" parent="1" source="m173oKReCjpi0H9GwvD5-63" target="m173oKReCjpi0H9GwvD5-65">
          <mxGeometry relative="1" as="geometry" />
        </mxCell>
        <mxCell id="m173oKReCjpi0H9GwvD5-61" style="rounded=0;orthogonalLoop=1;jettySize=auto;html=1;exitX=1;exitY=0.75;exitDx=0;exitDy=0;" edge="1" parent="1" source="m173oKReCjpi0H9GwvD5-63" target="m173oKReCjpi0H9GwvD5-66">
          <mxGeometry relative="1" as="geometry" />
        </mxCell>
        <mxCell id="m173oKReCjpi0H9GwvD5-62" style="rounded=0;orthogonalLoop=1;jettySize=auto;html=1;exitX=1;exitY=1;exitDx=0;exitDy=0;" edge="1" parent="1" source="m173oKReCjpi0H9GwvD5-63" target="m173oKReCjpi0H9GwvD5-68">
          <mxGeometry relative="1" as="geometry" />
        </mxCell>
        <mxCell id="m173oKReCjpi0H9GwvD5-63" value="DevEnv" style="rounded=0;whiteSpace=wrap;html=1;" vertex="1" parent="1">
          <mxGeometry x="360" y="600" width="120" height="40" as="geometry" />
        </mxCell>
        <mxCell id="m173oKReCjpi0H9GwvD5-64" value="Infrastruktur" style="rounded=0;whiteSpace=wrap;html=1;" vertex="1" parent="1">
          <mxGeometry x="520" y="440" width="120" height="40" as="geometry" />
        </mxCell>
        <mxCell id="m173oKReCjpi0H9GwvD5-65" value="" style="rounded=0;whiteSpace=wrap;html=1;" vertex="1" parent="1">
          <mxGeometry x="520" y="600" width="120" height="40" as="geometry" />
        </mxCell>
        <mxCell id="m173oKReCjpi0H9GwvD5-66" value="" style="rounded=0;whiteSpace=wrap;html=1;" vertex="1" parent="1">
          <mxGeometry x="520" y="680" width="120" height="40" as="geometry" />
        </mxCell>
        <mxCell id="m173oKReCjpi0H9GwvD5-67" value="" style="rounded=0;whiteSpace=wrap;html=1;" vertex="1" parent="1">
          <mxGeometry x="520" y="520" width="120" height="40" as="geometry" />
        </mxCell>
        <mxCell id="m173oKReCjpi0H9GwvD5-68" value="" style="rounded=0;whiteSpace=wrap;html=1;" vertex="1" parent="1">
          <mxGeometry x="520" y="760" width="120" height="40" as="geometry" />
        </mxCell>
        <mxCell id="m173oKReCjpi0H9GwvD5-69" style="rounded=0;orthogonalLoop=1;jettySize=auto;html=1;exitX=1;exitY=0;exitDx=0;exitDy=0;" edge="1" parent="1" source="m173oKReCjpi0H9GwvD5-74" target="m173oKReCjpi0H9GwvD5-75">
          <mxGeometry relative="1" as="geometry" />
        </mxCell>
        <mxCell id="m173oKReCjpi0H9GwvD5-70" style="rounded=0;orthogonalLoop=1;jettySize=auto;html=1;exitX=1;exitY=0.25;exitDx=0;exitDy=0;" edge="1" parent="1" source="m173oKReCjpi0H9GwvD5-74" target="m173oKReCjpi0H9GwvD5-78">
          <mxGeometry relative="1" as="geometry" />
        </mxCell>
        <mxCell id="m173oKReCjpi0H9GwvD5-71" style="edgeStyle=orthogonalEdgeStyle;rounded=0;orthogonalLoop=1;jettySize=auto;html=1;exitX=1;exitY=0.5;exitDx=0;exitDy=0;" edge="1" parent="1" source="m173oKReCjpi0H9GwvD5-74" target="m173oKReCjpi0H9GwvD5-76">
          <mxGeometry relative="1" as="geometry" />
        </mxCell>
        <mxCell id="m173oKReCjpi0H9GwvD5-72" style="rounded=0;orthogonalLoop=1;jettySize=auto;html=1;exitX=1;exitY=0.75;exitDx=0;exitDy=0;" edge="1" parent="1" source="m173oKReCjpi0H9GwvD5-74" target="m173oKReCjpi0H9GwvD5-77">
          <mxGeometry relative="1" as="geometry" />
        </mxCell>
        <mxCell id="m173oKReCjpi0H9GwvD5-73" style="rounded=0;orthogonalLoop=1;jettySize=auto;html=1;exitX=1;exitY=1;exitDx=0;exitDy=0;" edge="1" parent="1" source="m173oKReCjpi0H9GwvD5-74" target="m173oKReCjpi0H9GwvD5-79">
          <mxGeometry relative="1" as="geometry" />
        </mxCell>
        <mxCell id="m173oKReCjpi0H9GwvD5-74" value="Produktvision" style="rounded=0;whiteSpace=wrap;html=1;" vertex="1" parent="1">
          <mxGeometry x="1000" y="1000" width="120" height="40" as="geometry" />
        </mxCell>
        <mxCell id="m173oKReCjpi0H9GwvD5-75" value="Idee" style="rounded=0;whiteSpace=wrap;html=1;" vertex="1" parent="1">
          <mxGeometry x="1160" y="840" width="120" height="40" as="geometry" />
        </mxCell>
        <mxCell id="m173oKReCjpi0H9GwvD5-76" value="Fachlickeit" style="rounded=0;whiteSpace=wrap;html=1;" vertex="1" parent="1">
          <mxGeometry x="1160" y="1000" width="120" height="40" as="geometry" />
        </mxCell>
        <mxCell id="m173oKReCjpi0H9GwvD5-77" value="Technologien" style="rounded=0;whiteSpace=wrap;html=1;" vertex="1" parent="1">
          <mxGeometry x="1160" y="1080" width="120" height="40" as="geometry" />
        </mxCell>
        <mxCell id="m173oKReCjpi0H9GwvD5-78" value="Design" style="rounded=0;whiteSpace=wrap;html=1;" vertex="1" parent="1">
          <mxGeometry x="1160" y="920" width="120" height="40" as="geometry" />
        </mxCell>
        <mxCell id="m173oKReCjpi0H9GwvD5-79" value="Roadmap" style="rounded=0;whiteSpace=wrap;html=1;" vertex="1" parent="1">
          <mxGeometry x="1160" y="1160" width="120" height="40" as="geometry" />
        </mxCell>
        <mxCell id="m173oKReCjpi0H9GwvD5-80" style="rounded=0;orthogonalLoop=1;jettySize=auto;html=1;exitX=1;exitY=0;exitDx=0;exitDy=0;" edge="1" parent="1" source="m173oKReCjpi0H9GwvD5-85" target="m173oKReCjpi0H9GwvD5-86">
          <mxGeometry relative="1" as="geometry" />
        </mxCell>
        <mxCell id="m173oKReCjpi0H9GwvD5-81" style="rounded=0;orthogonalLoop=1;jettySize=auto;html=1;exitX=1;exitY=0.25;exitDx=0;exitDy=0;" edge="1" parent="1" source="m173oKReCjpi0H9GwvD5-85" target="m173oKReCjpi0H9GwvD5-89">
          <mxGeometry relative="1" as="geometry" />
        </mxCell>
        <mxCell id="m173oKReCjpi0H9GwvD5-82" style="edgeStyle=orthogonalEdgeStyle;rounded=0;orthogonalLoop=1;jettySize=auto;html=1;exitX=1;exitY=0.5;exitDx=0;exitDy=0;" edge="1" parent="1" source="m173oKReCjpi0H9GwvD5-85" target="m173oKReCjpi0H9GwvD5-87">
          <mxGeometry relative="1" as="geometry" />
        </mxCell>
        <mxCell id="m173oKReCjpi0H9GwvD5-83" style="rounded=0;orthogonalLoop=1;jettySize=auto;html=1;exitX=1;exitY=0.75;exitDx=0;exitDy=0;" edge="1" parent="1" source="m173oKReCjpi0H9GwvD5-85" target="m173oKReCjpi0H9GwvD5-88">
          <mxGeometry relative="1" as="geometry" />
        </mxCell>
        <mxCell id="m173oKReCjpi0H9GwvD5-84" style="rounded=0;orthogonalLoop=1;jettySize=auto;html=1;exitX=1;exitY=1;exitDx=0;exitDy=0;" edge="1" parent="1" source="m173oKReCjpi0H9GwvD5-85" target="m173oKReCjpi0H9GwvD5-90">
          <mxGeometry relative="1" as="geometry" />
        </mxCell>
        <mxCell id="m173oKReCjpi0H9GwvD5-85" value="Idee" style="rounded=0;whiteSpace=wrap;html=1;" vertex="1" parent="1">
          <mxGeometry x="1320" y="1000" width="120" height="40" as="geometry" />
        </mxCell>
        <mxCell id="m173oKReCjpi0H9GwvD5-86" value="Risikomanagement von Großveranstaltungen" style="rounded=0;whiteSpace=wrap;html=1;" vertex="1" parent="1">
          <mxGeometry x="1480" y="840" width="120" height="40" as="geometry" />
        </mxCell>
        <mxCell id="m173oKReCjpi0H9GwvD5-87" value="Entwicklung eines Resilienzmanagement-Systems" style="rounded=0;whiteSpace=wrap;html=1;" vertex="1" parent="1">
          <mxGeometry x="1480" y="1000" width="120" height="40" as="geometry" />
        </mxCell>
        <mxCell id="m173oKReCjpi0H9GwvD5-88" value="&lt;div&gt;Titel des Projekts: FreiburgRESIST – Sicher Leben in Freiburg: Resili-&lt;/div&gt;&lt;div&gt;enz-Management für die Stadt&lt;/div&gt;" style="rounded=0;whiteSpace=wrap;html=1;" vertex="1" parent="1">
          <mxGeometry x="1480" y="1080" width="200" height="40" as="geometry" />
        </mxCell>
        <mxCell id="m173oKReCjpi0H9GwvD5-89" value="Lageüberblick für die Einsatzkräfte der Sicherheitsbehörden" style="rounded=0;whiteSpace=wrap;html=1;" vertex="1" parent="1">
          <mxGeometry x="1480" y="920" width="120" height="40" as="geometry" />
        </mxCell>
        <mxCell id="m173oKReCjpi0H9GwvD5-90" value="Akronym: FreiburgRESIST" style="rounded=0;whiteSpace=wrap;html=1;" vertex="1" parent="1">
          <mxGeometry x="1480" y="1160" width="120" height="40" as="geometry" />
        </mxCell>
        <mxCell id="m173oKReCjpi0H9GwvD5-91" style="rounded=0;orthogonalLoop=1;jettySize=auto;html=1;exitX=1;exitY=0;exitDx=0;exitDy=0;" edge="1" parent="1" source="m173oKReCjpi0H9GwvD5-96" target="m173oKReCjpi0H9GwvD5-97">
          <mxGeometry relative="1" as="geometry" />
        </mxCell>
        <mxCell id="m173oKReCjpi0H9GwvD5-92" style="rounded=0;orthogonalLoop=1;jettySize=auto;html=1;exitX=1;exitY=0.25;exitDx=0;exitDy=0;" edge="1" parent="1" source="m173oKReCjpi0H9GwvD5-96" target="m173oKReCjpi0H9GwvD5-100">
          <mxGeometry relative="1" as="geometry" />
        </mxCell>
        <mxCell id="m173oKReCjpi0H9GwvD5-93" style="edgeStyle=orthogonalEdgeStyle;rounded=0;orthogonalLoop=1;jettySize=auto;html=1;exitX=1;exitY=0.5;exitDx=0;exitDy=0;" edge="1" parent="1" source="m173oKReCjpi0H9GwvD5-96" target="m173oKReCjpi0H9GwvD5-98">
          <mxGeometry relative="1" as="geometry" />
        </mxCell>
        <mxCell id="m173oKReCjpi0H9GwvD5-94" style="rounded=0;orthogonalLoop=1;jettySize=auto;html=1;exitX=1;exitY=0.75;exitDx=0;exitDy=0;" edge="1" parent="1" source="m173oKReCjpi0H9GwvD5-96" target="m173oKReCjpi0H9GwvD5-99">
          <mxGeometry relative="1" as="geometry" />
        </mxCell>
        <mxCell id="m173oKReCjpi0H9GwvD5-95" style="rounded=0;orthogonalLoop=1;jettySize=auto;html=1;exitX=1;exitY=1;exitDx=0;exitDy=0;" edge="1" parent="1" source="m173oKReCjpi0H9GwvD5-96" target="m173oKReCjpi0H9GwvD5-101">
          <mxGeometry relative="1" as="geometry" />
        </mxCell>
        <mxCell id="m173oKReCjpi0H9GwvD5-96" value="Design" style="rounded=0;whiteSpace=wrap;html=1;" vertex="1" parent="1">
          <mxGeometry x="1320" y="1400" width="120" height="40" as="geometry" />
        </mxCell>
        <mxCell id="m173oKReCjpi0H9GwvD5-97" value="" style="rounded=0;whiteSpace=wrap;html=1;" vertex="1" parent="1">
          <mxGeometry x="1480" y="1240" width="120" height="40" as="geometry" />
        </mxCell>
        <mxCell id="m173oKReCjpi0H9GwvD5-98" value="" style="rounded=0;whiteSpace=wrap;html=1;" vertex="1" parent="1">
          <mxGeometry x="1480" y="1400" width="120" height="40" as="geometry" />
        </mxCell>
        <mxCell id="m173oKReCjpi0H9GwvD5-99" value="" style="rounded=0;whiteSpace=wrap;html=1;" vertex="1" parent="1">
          <mxGeometry x="1480" y="1480" width="120" height="40" as="geometry" />
        </mxCell>
        <mxCell id="m173oKReCjpi0H9GwvD5-100" value="" style="rounded=0;whiteSpace=wrap;html=1;" vertex="1" parent="1">
          <mxGeometry x="1480" y="1320" width="120" height="40" as="geometry" />
        </mxCell>
        <mxCell id="m173oKReCjpi0H9GwvD5-101" value="" style="rounded=0;whiteSpace=wrap;html=1;" vertex="1" parent="1">
          <mxGeometry x="1480" y="1560" width="120" height="40" as="geometry" />
        </mxCell>
        <mxCell id="m173oKReCjpi0H9GwvD5-102" style="rounded=0;orthogonalLoop=1;jettySize=auto;html=1;exitX=1;exitY=0;exitDx=0;exitDy=0;" edge="1" parent="1" source="m173oKReCjpi0H9GwvD5-107" target="m173oKReCjpi0H9GwvD5-108">
          <mxGeometry relative="1" as="geometry" />
        </mxCell>
        <mxCell id="m173oKReCjpi0H9GwvD5-103" style="rounded=0;orthogonalLoop=1;jettySize=auto;html=1;exitX=1;exitY=0.25;exitDx=0;exitDy=0;" edge="1" parent="1" source="m173oKReCjpi0H9GwvD5-107" target="m173oKReCjpi0H9GwvD5-111">
          <mxGeometry relative="1" as="geometry" />
        </mxCell>
        <mxCell id="m173oKReCjpi0H9GwvD5-104" style="edgeStyle=orthogonalEdgeStyle;rounded=0;orthogonalLoop=1;jettySize=auto;html=1;exitX=1;exitY=0.5;exitDx=0;exitDy=0;" edge="1" parent="1" source="m173oKReCjpi0H9GwvD5-107" target="m173oKReCjpi0H9GwvD5-109">
          <mxGeometry relative="1" as="geometry" />
        </mxCell>
        <mxCell id="m173oKReCjpi0H9GwvD5-105" style="rounded=0;orthogonalLoop=1;jettySize=auto;html=1;exitX=1;exitY=0.75;exitDx=0;exitDy=0;" edge="1" parent="1" source="m173oKReCjpi0H9GwvD5-107" target="m173oKReCjpi0H9GwvD5-110">
          <mxGeometry relative="1" as="geometry" />
        </mxCell>
        <mxCell id="m173oKReCjpi0H9GwvD5-106" style="rounded=0;orthogonalLoop=1;jettySize=auto;html=1;exitX=1;exitY=1;exitDx=0;exitDy=0;" edge="1" parent="1" source="m173oKReCjpi0H9GwvD5-107" target="m173oKReCjpi0H9GwvD5-112">
          <mxGeometry relative="1" as="geometry" />
        </mxCell>
        <mxCell id="m173oKReCjpi0H9GwvD5-107" value="Fachlichkeit" style="rounded=0;whiteSpace=wrap;html=1;" vertex="1" parent="1">
          <mxGeometry x="1320" y="1800" width="120" height="40" as="geometry" />
        </mxCell>
        <mxCell id="m173oKReCjpi0H9GwvD5-108" value="Geschäftsprozesse" style="rounded=0;whiteSpace=wrap;html=1;" vertex="1" parent="1">
          <mxGeometry x="1480" y="1640" width="120" height="40" as="geometry" />
        </mxCell>
        <mxCell id="m173oKReCjpi0H9GwvD5-109" value="" style="rounded=0;whiteSpace=wrap;html=1;" vertex="1" parent="1">
          <mxGeometry x="1480" y="1800" width="120" height="40" as="geometry" />
        </mxCell>
        <mxCell id="m173oKReCjpi0H9GwvD5-110" value="" style="rounded=0;whiteSpace=wrap;html=1;" vertex="1" parent="1">
          <mxGeometry x="1480" y="1880" width="120" height="40" as="geometry" />
        </mxCell>
        <mxCell id="m173oKReCjpi0H9GwvD5-111" value="" style="rounded=0;whiteSpace=wrap;html=1;" vertex="1" parent="1">
          <mxGeometry x="1480" y="1720" width="120" height="40" as="geometry" />
        </mxCell>
        <mxCell id="m173oKReCjpi0H9GwvD5-112" value="" style="rounded=0;whiteSpace=wrap;html=1;" vertex="1" parent="1">
          <mxGeometry x="1480" y="1960" width="120" height="40" as="geometry" />
        </mxCell>
        <mxCell id="m173oKReCjpi0H9GwvD5-113" style="rounded=0;orthogonalLoop=1;jettySize=auto;html=1;exitX=1;exitY=0;exitDx=0;exitDy=0;" edge="1" parent="1" source="m173oKReCjpi0H9GwvD5-118" target="m173oKReCjpi0H9GwvD5-119">
          <mxGeometry relative="1" as="geometry" />
        </mxCell>
        <mxCell id="m173oKReCjpi0H9GwvD5-114" style="rounded=0;orthogonalLoop=1;jettySize=auto;html=1;exitX=1;exitY=0.25;exitDx=0;exitDy=0;" edge="1" parent="1" source="m173oKReCjpi0H9GwvD5-118" target="m173oKReCjpi0H9GwvD5-122">
          <mxGeometry relative="1" as="geometry" />
        </mxCell>
        <mxCell id="m173oKReCjpi0H9GwvD5-115" style="edgeStyle=orthogonalEdgeStyle;rounded=0;orthogonalLoop=1;jettySize=auto;html=1;exitX=1;exitY=0.5;exitDx=0;exitDy=0;" edge="1" parent="1" source="m173oKReCjpi0H9GwvD5-118" target="m173oKReCjpi0H9GwvD5-120">
          <mxGeometry relative="1" as="geometry" />
        </mxCell>
        <mxCell id="m173oKReCjpi0H9GwvD5-116" style="rounded=0;orthogonalLoop=1;jettySize=auto;html=1;exitX=1;exitY=0.75;exitDx=0;exitDy=0;" edge="1" parent="1" source="m173oKReCjpi0H9GwvD5-118" target="m173oKReCjpi0H9GwvD5-121">
          <mxGeometry relative="1" as="geometry" />
        </mxCell>
        <mxCell id="m173oKReCjpi0H9GwvD5-117" style="rounded=0;orthogonalLoop=1;jettySize=auto;html=1;exitX=1;exitY=1;exitDx=0;exitDy=0;" edge="1" parent="1" source="m173oKReCjpi0H9GwvD5-118" target="m173oKReCjpi0H9GwvD5-123">
          <mxGeometry relative="1" as="geometry" />
        </mxCell>
        <mxCell id="m173oKReCjpi0H9GwvD5-118" value="Geschäftsprozesse" style="rounded=0;whiteSpace=wrap;html=1;" vertex="1" parent="1">
          <mxGeometry x="1720" y="1800" width="120" height="40" as="geometry" />
        </mxCell>
        <mxCell id="m173oKReCjpi0H9GwvD5-119" value="Planung" style="rounded=0;whiteSpace=wrap;html=1;" vertex="1" parent="1">
          <mxGeometry x="1880" y="1640" width="120" height="40" as="geometry" />
        </mxCell>
        <mxCell id="m173oKReCjpi0H9GwvD5-120" value="Revision" style="rounded=0;whiteSpace=wrap;html=1;" vertex="1" parent="1">
          <mxGeometry x="1880" y="1800" width="120" height="40" as="geometry" />
        </mxCell>
        <mxCell id="m173oKReCjpi0H9GwvD5-121" value="" style="rounded=0;whiteSpace=wrap;html=1;" vertex="1" parent="1">
          <mxGeometry x="1880" y="1880" width="120" height="40" as="geometry" />
        </mxCell>
        <mxCell id="m173oKReCjpi0H9GwvD5-122" value="Einsatz" style="rounded=0;whiteSpace=wrap;html=1;" vertex="1" parent="1">
          <mxGeometry x="1880" y="1720" width="120" height="40" as="geometry" />
        </mxCell>
        <mxCell id="m173oKReCjpi0H9GwvD5-123" value="" style="rounded=0;whiteSpace=wrap;html=1;" vertex="1" parent="1">
          <mxGeometry x="1880" y="1960" width="120" height="40" as="geometry" />
        </mxCell>
        <mxCell id="m173oKReCjpi0H9GwvD5-124" style="rounded=0;orthogonalLoop=1;jettySize=auto;html=1;exitX=1;exitY=0;exitDx=0;exitDy=0;" edge="1" parent="1" source="m173oKReCjpi0H9GwvD5-129" target="m173oKReCjpi0H9GwvD5-130">
          <mxGeometry relative="1" as="geometry" />
        </mxCell>
        <mxCell id="m173oKReCjpi0H9GwvD5-125" style="rounded=0;orthogonalLoop=1;jettySize=auto;html=1;exitX=1;exitY=0.25;exitDx=0;exitDy=0;" edge="1" parent="1" source="m173oKReCjpi0H9GwvD5-129" target="m173oKReCjpi0H9GwvD5-133">
          <mxGeometry relative="1" as="geometry" />
        </mxCell>
        <mxCell id="m173oKReCjpi0H9GwvD5-126" style="edgeStyle=orthogonalEdgeStyle;rounded=0;orthogonalLoop=1;jettySize=auto;html=1;exitX=1;exitY=0.5;exitDx=0;exitDy=0;" edge="1" parent="1" source="m173oKReCjpi0H9GwvD5-129" target="m173oKReCjpi0H9GwvD5-131">
          <mxGeometry relative="1" as="geometry" />
        </mxCell>
        <mxCell id="m173oKReCjpi0H9GwvD5-127" style="rounded=0;orthogonalLoop=1;jettySize=auto;html=1;exitX=1;exitY=0.75;exitDx=0;exitDy=0;" edge="1" parent="1" source="m173oKReCjpi0H9GwvD5-129" target="m173oKReCjpi0H9GwvD5-132">
          <mxGeometry relative="1" as="geometry" />
        </mxCell>
        <mxCell id="m173oKReCjpi0H9GwvD5-128" style="rounded=0;orthogonalLoop=1;jettySize=auto;html=1;exitX=1;exitY=1;exitDx=0;exitDy=0;" edge="1" parent="1" source="m173oKReCjpi0H9GwvD5-129" target="m173oKReCjpi0H9GwvD5-134">
          <mxGeometry relative="1" as="geometry" />
        </mxCell>
        <mxCell id="m173oKReCjpi0H9GwvD5-129" value="Planung" style="rounded=0;whiteSpace=wrap;html=1;" vertex="1" parent="1">
          <mxGeometry x="2040" y="1800" width="120" height="40" as="geometry" />
        </mxCell>
        <mxCell id="m173oKReCjpi0H9GwvD5-130" value="Einsatzplanung und Regelwerk" style="rounded=0;whiteSpace=wrap;html=1;" vertex="1" parent="1">
          <mxGeometry x="2200" y="1640" width="120" height="40" as="geometry" />
        </mxCell>
        <mxCell id="m173oKReCjpi0H9GwvD5-131" value="Hör- und Sichtbarkeits-Simulation" style="rounded=0;whiteSpace=wrap;html=1;" vertex="1" parent="1">
          <mxGeometry x="2200" y="1800" width="120" height="40" as="geometry" />
        </mxCell>
        <mxCell id="m173oKReCjpi0H9GwvD5-132" value="Räumungs- und Evakuierungsplanung" style="rounded=0;whiteSpace=wrap;html=1;" vertex="1" parent="1">
          <mxGeometry x="2200" y="1880" width="120" height="40" as="geometry" />
        </mxCell>
        <mxCell id="m173oKReCjpi0H9GwvD5-133" value="Sicherheitskonzept" style="rounded=0;whiteSpace=wrap;html=1;" vertex="1" parent="1">
          <mxGeometry x="2200" y="1720" width="120" height="40" as="geometry" />
        </mxCell>
        <mxCell id="m173oKReCjpi0H9GwvD5-134" value="" style="rounded=0;whiteSpace=wrap;html=1;" vertex="1" parent="1">
          <mxGeometry x="2200" y="1960" width="120" height="40" as="geometry" />
        </mxCell>
        <mxCell id="m173oKReCjpi0H9GwvD5-135" style="rounded=0;orthogonalLoop=1;jettySize=auto;html=1;exitX=1;exitY=0;exitDx=0;exitDy=0;" edge="1" parent="1" source="m173oKReCjpi0H9GwvD5-140" target="m173oKReCjpi0H9GwvD5-141">
          <mxGeometry relative="1" as="geometry" />
        </mxCell>
        <mxCell id="m173oKReCjpi0H9GwvD5-136" style="rounded=0;orthogonalLoop=1;jettySize=auto;html=1;exitX=1;exitY=0.25;exitDx=0;exitDy=0;" edge="1" parent="1" source="m173oKReCjpi0H9GwvD5-140" target="m173oKReCjpi0H9GwvD5-144">
          <mxGeometry relative="1" as="geometry" />
        </mxCell>
        <mxCell id="m173oKReCjpi0H9GwvD5-137" style="edgeStyle=orthogonalEdgeStyle;rounded=0;orthogonalLoop=1;jettySize=auto;html=1;exitX=1;exitY=0.5;exitDx=0;exitDy=0;" edge="1" parent="1" source="m173oKReCjpi0H9GwvD5-140" target="m173oKReCjpi0H9GwvD5-142">
          <mxGeometry relative="1" as="geometry" />
        </mxCell>
        <mxCell id="m173oKReCjpi0H9GwvD5-138" style="rounded=0;orthogonalLoop=1;jettySize=auto;html=1;exitX=1;exitY=0.75;exitDx=0;exitDy=0;" edge="1" parent="1" source="m173oKReCjpi0H9GwvD5-140" target="m173oKReCjpi0H9GwvD5-143">
          <mxGeometry relative="1" as="geometry" />
        </mxCell>
        <mxCell id="m173oKReCjpi0H9GwvD5-139" style="rounded=0;orthogonalLoop=1;jettySize=auto;html=1;exitX=1;exitY=1;exitDx=0;exitDy=0;" edge="1" parent="1" source="m173oKReCjpi0H9GwvD5-140" target="m173oKReCjpi0H9GwvD5-145">
          <mxGeometry relative="1" as="geometry" />
        </mxCell>
        <mxCell id="m173oKReCjpi0H9GwvD5-140" value="Einsatz" style="rounded=0;whiteSpace=wrap;html=1;" vertex="1" parent="1">
          <mxGeometry x="2040" y="2200" width="120" height="40" as="geometry" />
        </mxCell>
        <mxCell id="m173oKReCjpi0H9GwvD5-141" value="Lagebewertung" style="rounded=0;whiteSpace=wrap;html=1;" vertex="1" parent="1">
          <mxGeometry x="2200" y="2040" width="120" height="40" as="geometry" />
        </mxCell>
        <mxCell id="m173oKReCjpi0H9GwvD5-142" value="Kurzzeitprognose" style="rounded=0;whiteSpace=wrap;html=1;" vertex="1" parent="1">
          <mxGeometry x="2200" y="2200" width="120" height="40" as="geometry" />
        </mxCell>
        <mxCell id="m173oKReCjpi0H9GwvD5-143" value="Personenstrom-Analyse" style="rounded=0;whiteSpace=wrap;html=1;" vertex="1" parent="1">
          <mxGeometry x="2200" y="2280" width="120" height="40" as="geometry" />
        </mxCell>
        <mxCell id="m173oKReCjpi0H9GwvD5-144" value="Einsatzkoordination" style="rounded=0;whiteSpace=wrap;html=1;" vertex="1" parent="1">
          <mxGeometry x="2200" y="2120" width="120" height="40" as="geometry" />
        </mxCell>
        <mxCell id="m173oKReCjpi0H9GwvD5-145" value="Lageabfrage" style="rounded=0;whiteSpace=wrap;html=1;" vertex="1" parent="1">
          <mxGeometry x="2200" y="2360" width="120" height="40" as="geometry" />
        </mxCell>
        <mxCell id="m173oKReCjpi0H9GwvD5-146" style="rounded=0;orthogonalLoop=1;jettySize=auto;html=1;exitX=1;exitY=0;exitDx=0;exitDy=0;" edge="1" parent="1" source="m173oKReCjpi0H9GwvD5-151" target="m173oKReCjpi0H9GwvD5-152">
          <mxGeometry relative="1" as="geometry" />
        </mxCell>
        <mxCell id="m173oKReCjpi0H9GwvD5-147" style="rounded=0;orthogonalLoop=1;jettySize=auto;html=1;exitX=1;exitY=0.25;exitDx=0;exitDy=0;" edge="1" parent="1" source="m173oKReCjpi0H9GwvD5-151" target="m173oKReCjpi0H9GwvD5-155">
          <mxGeometry relative="1" as="geometry" />
        </mxCell>
        <mxCell id="m173oKReCjpi0H9GwvD5-148" style="edgeStyle=orthogonalEdgeStyle;rounded=0;orthogonalLoop=1;jettySize=auto;html=1;exitX=1;exitY=0.5;exitDx=0;exitDy=0;" edge="1" parent="1" source="m173oKReCjpi0H9GwvD5-151" target="m173oKReCjpi0H9GwvD5-153">
          <mxGeometry relative="1" as="geometry" />
        </mxCell>
        <mxCell id="m173oKReCjpi0H9GwvD5-149" style="rounded=0;orthogonalLoop=1;jettySize=auto;html=1;exitX=1;exitY=0.75;exitDx=0;exitDy=0;" edge="1" parent="1" source="m173oKReCjpi0H9GwvD5-151" target="m173oKReCjpi0H9GwvD5-154">
          <mxGeometry relative="1" as="geometry" />
        </mxCell>
        <mxCell id="m173oKReCjpi0H9GwvD5-150" style="rounded=0;orthogonalLoop=1;jettySize=auto;html=1;exitX=1;exitY=1;exitDx=0;exitDy=0;" edge="1" parent="1" source="m173oKReCjpi0H9GwvD5-151" target="m173oKReCjpi0H9GwvD5-156">
          <mxGeometry relative="1" as="geometry" />
        </mxCell>
        <mxCell id="m173oKReCjpi0H9GwvD5-151" value="Revision" style="rounded=0;whiteSpace=wrap;html=1;" vertex="1" parent="1">
          <mxGeometry x="2040" y="2600" width="120" height="40" as="geometry" />
        </mxCell>
        <mxCell id="m173oKReCjpi0H9GwvD5-152" value="Analyse vergangener Lagen" style="rounded=0;whiteSpace=wrap;html=1;" vertex="1" parent="1">
          <mxGeometry x="2200" y="2440" width="120" height="40" as="geometry" />
        </mxCell>
        <mxCell id="m173oKReCjpi0H9GwvD5-153" value="" style="rounded=0;whiteSpace=wrap;html=1;" vertex="1" parent="1">
          <mxGeometry x="2200" y="2600" width="120" height="40" as="geometry" />
        </mxCell>
        <mxCell id="m173oKReCjpi0H9GwvD5-154" value="" style="rounded=0;whiteSpace=wrap;html=1;" vertex="1" parent="1">
          <mxGeometry x="2200" y="2680" width="120" height="40" as="geometry" />
        </mxCell>
        <mxCell id="m173oKReCjpi0H9GwvD5-155" value="Resilienzbewertung" style="rounded=0;whiteSpace=wrap;html=1;" vertex="1" parent="1">
          <mxGeometry x="2200" y="2520" width="120" height="40" as="geometry" />
        </mxCell>
        <mxCell id="m173oKReCjpi0H9GwvD5-156" value="" style="rounded=0;whiteSpace=wrap;html=1;" vertex="1" parent="1">
          <mxGeometry x="2200" y="2760" width="120" height="40" as="geometry" />
        </mxCell>
      </root>
    </mxGraphModel>
  </diagram>
</mxfile>
